<mxfile host="app.diagrams.net" modified="2023-03-19T23:57:42.825Z" agent="5.0 (Windows NT 10.0; Win64; x64) AppleWebKit/537.36 (KHTML, like Gecko) Chrome/111.0.0.0 Safari/537.36" etag="m1iNTp867TTlbPU3wwMi" version="21.0.8" type="github">
  <diagram name="第 1 页" id="VpofHfH1nedOJpIeFxnD">
    <mxGraphModel dx="1877" dy="1717" grid="1" gridSize="10" guides="1" tooltips="1" connect="1" arrows="1" fold="1" page="1" pageScale="1" pageWidth="827" pageHeight="1169" math="0" shadow="0">
      <root>
        <mxCell id="0" />
        <mxCell id="1" parent="0" />
        <mxCell id="DIyC-fpvMkbPvDOknml4-1" value="" style="rounded=0;whiteSpace=wrap;html=1;" parent="1" vertex="1">
          <mxGeometry x="-10" y="522.22" width="1840" height="420" as="geometry" />
        </mxCell>
        <mxCell id="DIyC-fpvMkbPvDOknml4-2" value="&lt;p style=&quot;&quot;&gt;&lt;span style=&quot;background-color: initial;&quot;&gt;CPU1&lt;/span&gt;&lt;/p&gt;" style="rounded=0;whiteSpace=wrap;html=1;fontSize=20;fillColor=none;align=center;horizontal=1;fontFamily=Helvetica;flipH=0;flipV=1;labelPosition=center;verticalLabelPosition=top;verticalAlign=bottom;" parent="1" vertex="1">
          <mxGeometry x="396" y="1010" width="280" height="506" as="geometry" />
        </mxCell>
        <mxCell id="DIyC-fpvMkbPvDOknml4-3" value="控制单元" style="rounded=0;whiteSpace=wrap;html=1;fontFamily=Helvetica;fontSize=14;fontColor=#000000;fillColor=none;align=left;verticalAlign=top;" parent="1" vertex="1">
          <mxGeometry x="472" y="1071" width="200" height="110" as="geometry" />
        </mxCell>
        <mxCell id="DIyC-fpvMkbPvDOknml4-4" value="&lt;font style=&quot;font-size: 20px;&quot;&gt;内核&lt;/font&gt;" style="rounded=0;whiteSpace=wrap;html=1;strokeColor=none;fillColor=none;" parent="1" vertex="1">
          <mxGeometry y="530" width="80" height="41" as="geometry" />
        </mxCell>
        <mxCell id="DIyC-fpvMkbPvDOknml4-5" value="&lt;font style=&quot;font-size: 20px;&quot;&gt;硬件&lt;/font&gt;" style="rounded=0;whiteSpace=wrap;html=1;strokeColor=none;fillColor=none;" parent="1" vertex="1">
          <mxGeometry y="960" width="80" height="41" as="geometry" />
        </mxCell>
        <mxCell id="DIyC-fpvMkbPvDOknml4-6" value="&lt;p style=&quot;&quot;&gt;&lt;span style=&quot;background-color: initial;&quot;&gt;CPU0&lt;/span&gt;&lt;/p&gt;" style="rounded=0;whiteSpace=wrap;html=1;fontSize=20;fillColor=none;align=center;horizontal=1;fontFamily=Helvetica;flipH=0;flipV=1;labelPosition=center;verticalLabelPosition=top;verticalAlign=bottom;" parent="1" vertex="1">
          <mxGeometry x="182" y="1010" width="190" height="506" as="geometry" />
        </mxCell>
        <mxCell id="DIyC-fpvMkbPvDOknml4-7" style="edgeStyle=orthogonalEdgeStyle;curved=1;rounded=0;orthogonalLoop=1;jettySize=auto;html=1;fontFamily=Helvetica;fontSize=10;fontColor=#7EA6E0;startArrow=none;startFill=0;endArrow=classic;endFill=1;fillColor=#d5e8d4;strokeColor=#82b366;gradientColor=#97d077;" parent="1" source="DIyC-fpvMkbPvDOknml4-9" target="DIyC-fpvMkbPvDOknml4-20" edge="1">
          <mxGeometry relative="1" as="geometry" />
        </mxCell>
        <mxCell id="DIyC-fpvMkbPvDOknml4-8" value="1" style="edgeLabel;html=1;align=center;verticalAlign=middle;resizable=0;points=[];fontSize=10;fontFamily=Helvetica;fontColor=#97D077;" parent="DIyC-fpvMkbPvDOknml4-7" vertex="1" connectable="0">
          <mxGeometry x="0.2345" y="-11" relative="1" as="geometry">
            <mxPoint as="offset" />
          </mxGeometry>
        </mxCell>
        <mxCell id="DIyC-fpvMkbPvDOknml4-9" value="寄存器" style="ellipse;whiteSpace=wrap;html=1;fontFamily=Helvetica;fontSize=14;fillColor=none;" parent="1" vertex="1">
          <mxGeometry x="402" y="1021" width="90" height="50" as="geometry" />
        </mxCell>
        <mxCell id="DIyC-fpvMkbPvDOknml4-10" value="逻辑单元&lt;br&gt;&lt;font style=&quot;font-size: 10px;&quot;&gt;(计算类型指令)&lt;/font&gt;" style="ellipse;whiteSpace=wrap;html=1;fontFamily=Helvetica;fontSize=14;fillColor=none;" parent="1" vertex="1">
          <mxGeometry x="402" y="1201" width="100" height="40" as="geometry" />
        </mxCell>
        <mxCell id="DIyC-fpvMkbPvDOknml4-11" style="edgeStyle=orthogonalEdgeStyle;curved=1;rounded=0;orthogonalLoop=1;jettySize=auto;html=1;exitX=0.5;exitY=1;exitDx=0;exitDy=0;dashed=1;fontFamily=Helvetica;fontSize=14;" parent="1" source="DIyC-fpvMkbPvDOknml4-15" target="DIyC-fpvMkbPvDOknml4-27" edge="1">
          <mxGeometry relative="1" as="geometry" />
        </mxCell>
        <mxCell id="DIyC-fpvMkbPvDOknml4-12" style="edgeStyle=orthogonalEdgeStyle;curved=1;rounded=0;orthogonalLoop=1;jettySize=auto;html=1;exitX=0;exitY=0.75;exitDx=0;exitDy=0;entryX=0.95;entryY=0.455;entryDx=0;entryDy=0;entryPerimeter=0;fontFamily=Helvetica;fontSize=10;fontColor=#000000;startArrow=none;startFill=0;endArrow=classic;endFill=1;fillColor=#f0a30a;strokeColor=#BD7000;" parent="1" source="DIyC-fpvMkbPvDOknml4-15" target="DIyC-fpvMkbPvDOknml4-3" edge="1">
          <mxGeometry relative="1" as="geometry" />
        </mxCell>
        <mxCell id="DIyC-fpvMkbPvDOknml4-13" value="4" style="edgeLabel;html=1;align=center;verticalAlign=middle;resizable=0;points=[];fontSize=10;fontFamily=Helvetica;fontColor=#FF8000;" parent="DIyC-fpvMkbPvDOknml4-12" vertex="1" connectable="0">
          <mxGeometry x="0.1788" y="12" relative="1" as="geometry">
            <mxPoint x="-193" y="-38" as="offset" />
          </mxGeometry>
        </mxCell>
        <mxCell id="DIyC-fpvMkbPvDOknml4-14" style="edgeStyle=orthogonalEdgeStyle;curved=1;rounded=0;orthogonalLoop=1;jettySize=auto;html=1;entryX=0;entryY=0.5;entryDx=0;entryDy=0;fontFamily=Helvetica;fontSize=14;fontColor=#FF8000;startArrow=classic;startFill=1;endArrow=classic;endFill=1;" parent="1" source="DIyC-fpvMkbPvDOknml4-15" target="DIyC-fpvMkbPvDOknml4-17" edge="1">
          <mxGeometry relative="1" as="geometry" />
        </mxCell>
        <mxCell id="DIyC-fpvMkbPvDOknml4-15" value="&lt;font style=&quot;font-size: 20px;&quot;&gt;内存&lt;/font&gt;&lt;font style=&quot;font-size: 14px;&quot;&gt;(内存条/物理内存/DRAM)&lt;/font&gt;" style="rounded=0;whiteSpace=wrap;html=1;fontFamily=Helvetica;fontSize=14;fillColor=none;align=left;verticalAlign=top;" parent="1" vertex="1">
          <mxGeometry x="1030" y="980" width="320" height="550" as="geometry" />
        </mxCell>
        <mxCell id="DIyC-fpvMkbPvDOknml4-16" style="edgeStyle=orthogonalEdgeStyle;curved=1;rounded=0;orthogonalLoop=1;jettySize=auto;html=1;exitX=0;exitY=1;exitDx=0;exitDy=0;entryX=1;entryY=0.5;entryDx=0;entryDy=0;dashed=1;fontFamily=Helvetica;fontSize=14;" parent="1" source="DIyC-fpvMkbPvDOknml4-17" target="DIyC-fpvMkbPvDOknml4-27" edge="1">
          <mxGeometry relative="1" as="geometry" />
        </mxCell>
        <mxCell id="DIyC-fpvMkbPvDOknml4-17" value="&lt;span style=&quot;font-size: 20px;&quot;&gt;硬盘&lt;/span&gt;&lt;font style=&quot;font-size: 14px;&quot;&gt;(存储设备)&lt;/font&gt;" style="rounded=0;whiteSpace=wrap;html=1;fontFamily=Helvetica;fontSize=14;fillColor=none;align=left;verticalAlign=top;" parent="1" vertex="1">
          <mxGeometry x="1540" y="1000" width="170" height="350" as="geometry" />
        </mxCell>
        <mxCell id="DIyC-fpvMkbPvDOknml4-18" style="edgeStyle=orthogonalEdgeStyle;curved=1;rounded=0;orthogonalLoop=1;jettySize=auto;html=1;entryX=0;entryY=1;entryDx=0;entryDy=0;fontFamily=Helvetica;fontSize=10;fontColor=#7EA6E0;startArrow=none;startFill=0;endArrow=classic;endFill=1;fillColor=#d5e8d4;strokeColor=#82b366;gradientColor=#97d077;" parent="1" source="DIyC-fpvMkbPvDOknml4-20" target="DIyC-fpvMkbPvDOknml4-15" edge="1">
          <mxGeometry relative="1" as="geometry" />
        </mxCell>
        <mxCell id="DIyC-fpvMkbPvDOknml4-19" value="2" style="edgeLabel;html=1;align=center;verticalAlign=middle;resizable=0;points=[];fontSize=10;fontFamily=Helvetica;fontColor=#97D077;" parent="DIyC-fpvMkbPvDOknml4-18" vertex="1" connectable="0">
          <mxGeometry x="0.1978" y="3" relative="1" as="geometry">
            <mxPoint as="offset" />
          </mxGeometry>
        </mxCell>
        <mxCell id="DIyC-fpvMkbPvDOknml4-20" value="&amp;nbsp; &amp;nbsp;cpu cache(SRAM)" style="swimlane;childLayout=stackLayout;resizeParent=1;resizeParentMax=0;horizontal=1;startSize=20;horizontalStack=0;html=1;fontFamily=Helvetica;fontSize=14;fillColor=none;" parent="1" vertex="1">
          <mxGeometry x="532" y="1423" width="140" height="70" as="geometry">
            <mxRectangle x="420" y="1420" width="160" height="30" as="alternateBounds" />
          </mxGeometry>
        </mxCell>
        <mxCell id="DIyC-fpvMkbPvDOknml4-21" value="L1&lt;span style=&quot;font-weight: normal;&quot;&gt;&lt;font style=&quot;font-size: 10px;&quot;&gt;(数据缓存、指令缓存)&lt;/font&gt;&lt;/span&gt;" style="swimlane;startSize=180;horizontal=1;html=1;fontFamily=Helvetica;fontSize=14;fillColor=none;" parent="DIyC-fpvMkbPvDOknml4-20" vertex="1">
          <mxGeometry y="20" width="140" height="30" as="geometry" />
        </mxCell>
        <mxCell id="DIyC-fpvMkbPvDOknml4-22" value="L2" style="swimlane;startSize=180;horizontal=1;html=1;fontFamily=Helvetica;fontSize=14;fillColor=none;" parent="DIyC-fpvMkbPvDOknml4-20" vertex="1">
          <mxGeometry y="50" width="140" height="20" as="geometry" />
        </mxCell>
        <mxCell id="DIyC-fpvMkbPvDOknml4-23" style="edgeStyle=orthogonalEdgeStyle;rounded=0;orthogonalLoop=1;jettySize=auto;html=1;exitX=0.5;exitY=1;exitDx=0;exitDy=0;fontFamily=Helvetica;fontSize=14;" parent="DIyC-fpvMkbPvDOknml4-20" source="DIyC-fpvMkbPvDOknml4-22" target="DIyC-fpvMkbPvDOknml4-22" edge="1">
          <mxGeometry relative="1" as="geometry" />
        </mxCell>
        <mxCell id="DIyC-fpvMkbPvDOknml4-24" style="edgeStyle=orthogonalEdgeStyle;curved=1;rounded=0;orthogonalLoop=1;jettySize=auto;html=1;exitX=0.5;exitY=1;exitDx=0;exitDy=0;entryX=0.5;entryY=0;entryDx=0;entryDy=0;dashed=1;fontFamily=Helvetica;fontSize=14;fontColor=#FF3333;strokeColor=none;endArrow=blockThin;endFill=1;" parent="1" source="DIyC-fpvMkbPvDOknml4-26" edge="1">
          <mxGeometry relative="1" as="geometry">
            <mxPoint x="462" y="1386" as="targetPoint" />
          </mxGeometry>
        </mxCell>
        <mxCell id="DIyC-fpvMkbPvDOknml4-25" value="" style="edgeStyle=orthogonalEdgeStyle;curved=1;rounded=0;orthogonalLoop=1;jettySize=auto;html=1;strokeColor=#FF8000;fontFamily=Helvetica;fontSize=14;fontColor=#FF3333;startArrow=none;startFill=0;endArrow=classic;endFill=1;" parent="1" source="DIyC-fpvMkbPvDOknml4-26" target="DIyC-fpvMkbPvDOknml4-78" edge="1">
          <mxGeometry relative="1" as="geometry" />
        </mxCell>
        <mxCell id="DIyC-fpvMkbPvDOknml4-26" value="MMU" style="ellipse;whiteSpace=wrap;html=1;fontFamily=Helvetica;fontSize=14;fillColor=none;" parent="1" vertex="1">
          <mxGeometry x="412" y="1316" width="100" height="40" as="geometry" />
        </mxCell>
        <mxCell id="DIyC-fpvMkbPvDOknml4-27" value="&lt;span style=&quot;font-size: 20px;&quot;&gt;存储器&lt;/span&gt;" style="rounded=0;whiteSpace=wrap;html=1;strokeColor=none;fillColor=none;" parent="1" vertex="1">
          <mxGeometry x="1180" y="1589" width="80" height="41" as="geometry" />
        </mxCell>
        <mxCell id="DIyC-fpvMkbPvDOknml4-28" style="edgeStyle=orthogonalEdgeStyle;rounded=0;orthogonalLoop=1;jettySize=auto;html=1;entryX=0;entryY=0.25;entryDx=0;entryDy=0;fontFamily=Helvetica;fontSize=14;curved=1;dashed=1;" parent="1" source="DIyC-fpvMkbPvDOknml4-22" target="DIyC-fpvMkbPvDOknml4-27" edge="1">
          <mxGeometry relative="1" as="geometry" />
        </mxCell>
        <mxCell id="DIyC-fpvMkbPvDOknml4-29" value="2.1" style="edgeStyle=orthogonalEdgeStyle;curved=1;rounded=0;orthogonalLoop=1;jettySize=auto;html=1;entryX=0.5;entryY=1;entryDx=0;entryDy=0;fontFamily=Helvetica;fontSize=10;fontColor=#FF8000;startArrow=classic;startFill=1;endArrow=classic;endFill=1;exitX=0.5;exitY=0;exitDx=0;exitDy=0;fillColor=#f0a30a;strokeColor=#BD7000;" parent="1" source="DIyC-fpvMkbPvDOknml4-78" target="DIyC-fpvMkbPvDOknml4-26" edge="1">
          <mxGeometry relative="1" as="geometry">
            <mxPoint x="462" y="1386" as="sourcePoint" />
            <mxPoint as="offset" />
          </mxGeometry>
        </mxCell>
        <mxCell id="DIyC-fpvMkbPvDOknml4-30" value="&lt;span style=&quot;font-size: 20px;&quot;&gt;用户层&lt;/span&gt;" style="rounded=0;whiteSpace=wrap;html=1;strokeColor=none;fillColor=none;" parent="1" vertex="1">
          <mxGeometry x="10" y="340" width="80" height="41" as="geometry" />
        </mxCell>
        <mxCell id="DIyC-fpvMkbPvDOknml4-31" value="&lt;font style=&quot;font-size: 14px;&quot;&gt;&lt;b&gt;32位CPU&lt;/b&gt;：表示CPU的位宽,代表CPU一次可以计算（运算）的数据量，即4B。&lt;br&gt;&lt;br&gt;&lt;/font&gt;" style="rounded=0;whiteSpace=wrap;html=1;strokeColor=none;fillColor=none;align=left;verticalAlign=top;" parent="1" vertex="1">
          <mxGeometry x="570" y="955.5" width="270" height="50" as="geometry" />
        </mxCell>
        <mxCell id="DIyC-fpvMkbPvDOknml4-36" style="edgeStyle=orthogonalEdgeStyle;curved=1;rounded=0;orthogonalLoop=1;jettySize=auto;html=1;fontFamily=Helvetica;fontSize=10;fontColor=#000000;startArrow=none;startFill=0;endArrow=classic;endFill=1;exitX=0;exitY=0.75;exitDx=0;exitDy=0;fillColor=#f0a30a;strokeColor=#BD7000;" parent="1" source="DIyC-fpvMkbPvDOknml4-40" target="DIyC-fpvMkbPvDOknml4-10" edge="1">
          <mxGeometry relative="1" as="geometry">
            <Array as="points">
              <mxPoint x="452" y="1124" />
            </Array>
          </mxGeometry>
        </mxCell>
        <mxCell id="DIyC-fpvMkbPvDOknml4-37" value="5" style="edgeLabel;html=1;align=center;verticalAlign=middle;resizable=0;points=[];fontSize=10;fontFamily=Helvetica;fontColor=#FF8000;" parent="DIyC-fpvMkbPvDOknml4-36" vertex="1" connectable="0">
          <mxGeometry x="-0.0041" y="7" relative="1" as="geometry">
            <mxPoint x="-7" y="4" as="offset" />
          </mxGeometry>
        </mxCell>
        <mxCell id="DIyC-fpvMkbPvDOknml4-38" style="edgeStyle=orthogonalEdgeStyle;curved=1;rounded=0;orthogonalLoop=1;jettySize=auto;html=1;entryX=1;entryY=0.5;entryDx=0;entryDy=0;fontFamily=Helvetica;fontSize=10;fontColor=#000000;startArrow=none;startFill=0;endArrow=classic;endFill=1;fillColor=#f0a30a;strokeColor=#BD7000;" parent="1" source="DIyC-fpvMkbPvDOknml4-40" target="DIyC-fpvMkbPvDOknml4-9" edge="1">
          <mxGeometry relative="1" as="geometry" />
        </mxCell>
        <mxCell id="DIyC-fpvMkbPvDOknml4-39" value="&lt;font color=&quot;#ff8000&quot;&gt;5&lt;/font&gt;" style="edgeLabel;html=1;align=center;verticalAlign=middle;resizable=0;points=[];fontSize=10;fontFamily=Helvetica;fontColor=#000000;" parent="DIyC-fpvMkbPvDOknml4-38" vertex="1" connectable="0">
          <mxGeometry x="-0.3517" y="17" relative="1" as="geometry">
            <mxPoint x="-3" y="-6" as="offset" />
          </mxGeometry>
        </mxCell>
        <mxCell id="DIyC-fpvMkbPvDOknml4-40" value="指令寄存器&lt;br&gt;&lt;font style=&quot;font-size: 10px;&quot;&gt;(当前正在执行的指令)&lt;/font&gt;" style="rounded=1;whiteSpace=wrap;html=1;fontFamily=Helvetica;fontSize=14;fontColor=#000000;fillColor=none;" parent="1" vertex="1">
          <mxGeometry x="482" y="1101" width="180" height="30" as="geometry" />
        </mxCell>
        <mxCell id="DIyC-fpvMkbPvDOknml4-41" value="1" style="edgeStyle=orthogonalEdgeStyle;curved=1;rounded=0;orthogonalLoop=1;jettySize=auto;html=1;strokeColor=#BD7000;fontFamily=Helvetica;fontSize=14;fontColor=#FF8000;startArrow=none;startFill=0;endArrow=classic;endFill=1;fillColor=#f0a30a;" parent="1" source="DIyC-fpvMkbPvDOknml4-42" target="DIyC-fpvMkbPvDOknml4-83" edge="1">
          <mxGeometry relative="1" as="geometry" />
        </mxCell>
        <mxCell id="DIyC-fpvMkbPvDOknml4-42" value="程序寄存器&lt;br&gt;&lt;font style=&quot;font-size: 10px;&quot;&gt;(存储CPU下一条指令的内存地址)&lt;/font&gt;" style="rounded=1;whiteSpace=wrap;html=1;fontFamily=Helvetica;fontSize=14;fontColor=#000000;fillColor=none;" parent="1" vertex="1">
          <mxGeometry x="482" y="1131" width="180" height="40" as="geometry" />
        </mxCell>
        <mxCell id="DIyC-fpvMkbPvDOknml4-43" value="&amp;nbsp; &amp;nbsp;cpu cache(SRAM)" style="swimlane;childLayout=stackLayout;resizeParent=1;resizeParentMax=0;horizontal=1;startSize=20;horizontalStack=0;html=1;fontFamily=Helvetica;fontSize=14;fillColor=none;" parent="1" vertex="1">
          <mxGeometry x="232" y="1414" width="140" height="80" as="geometry">
            <mxRectangle x="420" y="1420" width="160" height="30" as="alternateBounds" />
          </mxGeometry>
        </mxCell>
        <mxCell id="DIyC-fpvMkbPvDOknml4-44" value="L1&lt;span style=&quot;font-weight: normal;&quot;&gt;&lt;font style=&quot;font-size: 10px;&quot;&gt;(数据缓存、指令缓存)&lt;/font&gt;&lt;/span&gt;" style="swimlane;startSize=180;horizontal=1;html=1;fontFamily=Helvetica;fontSize=14;fillColor=none;" parent="DIyC-fpvMkbPvDOknml4-43" vertex="1">
          <mxGeometry y="20" width="140" height="30" as="geometry" />
        </mxCell>
        <mxCell id="DIyC-fpvMkbPvDOknml4-45" value="L2" style="swimlane;startSize=180;horizontal=1;html=1;fontFamily=Helvetica;fontSize=14;fillColor=none;" parent="DIyC-fpvMkbPvDOknml4-43" vertex="1">
          <mxGeometry y="50" width="140" height="30" as="geometry" />
        </mxCell>
        <mxCell id="DIyC-fpvMkbPvDOknml4-46" style="edgeStyle=orthogonalEdgeStyle;rounded=0;orthogonalLoop=1;jettySize=auto;html=1;exitX=0.5;exitY=1;exitDx=0;exitDy=0;fontFamily=Helvetica;fontSize=14;" parent="DIyC-fpvMkbPvDOknml4-43" source="DIyC-fpvMkbPvDOknml4-45" target="DIyC-fpvMkbPvDOknml4-45" edge="1">
          <mxGeometry relative="1" as="geometry" />
        </mxCell>
        <mxCell id="DIyC-fpvMkbPvDOknml4-47" value="&lt;b&gt;&lt;font style=&quot;font-size: 14px;&quot;&gt;L3&lt;/font&gt;&lt;/b&gt;(cat /sys/devices/system/cpu/cpu0/cache/index3/size)" style="rounded=0;whiteSpace=wrap;html=1;fontFamily=Helvetica;fontSize=10;" parent="1" vertex="1">
          <mxGeometry x="232" y="1494" width="440" height="22" as="geometry" />
        </mxCell>
        <mxCell id="DIyC-fpvMkbPvDOknml4-48" value="3.控制、地址、数据总线&lt;br&gt;&lt;font&gt;（物理地址）&lt;/font&gt;" style="edgeStyle=orthogonalEdgeStyle;curved=1;rounded=0;orthogonalLoop=1;jettySize=auto;html=1;entryX=0;entryY=0.86;entryDx=0;entryDy=0;entryPerimeter=0;fontFamily=Helvetica;fontSize=14;fontColor=#FF8000;exitX=1;exitY=0.5;exitDx=0;exitDy=0;startArrow=none;startFill=0;fillColor=#f0a30a;strokeColor=#BD7000;" parent="1" source="DIyC-fpvMkbPvDOknml4-26" target="DIyC-fpvMkbPvDOknml4-15" edge="1">
          <mxGeometry x="0.0167" y="30" relative="1" as="geometry">
            <mxPoint as="offset" />
          </mxGeometry>
        </mxCell>
        <mxCell id="DIyC-fpvMkbPvDOknml4-49" style="rounded=0;orthogonalLoop=1;jettySize=auto;html=1;entryX=1;entryY=0.75;entryDx=0;entryDy=0;fontFamily=Helvetica;fontSize=14;fontColor=#FF3333;startArrow=classic;startFill=1;endArrow=classic;endFill=1;edgeStyle=orthogonalEdgeStyle;curved=1;fillColor=#f8cecc;gradientColor=#ea6b66;strokeColor=#b85450;" parent="1" source="DIyC-fpvMkbPvDOknml4-51" target="DIyC-fpvMkbPvDOknml4-1" edge="1">
          <mxGeometry relative="1" as="geometry" />
        </mxCell>
        <mxCell id="DIyC-fpvMkbPvDOknml4-50" value="1" style="edgeLabel;html=1;align=center;verticalAlign=middle;resizable=0;points=[];fontSize=14;fontFamily=Helvetica;fontColor=#FF3333;" parent="DIyC-fpvMkbPvDOknml4-49" vertex="1" connectable="0">
          <mxGeometry x="0.0606" y="8" relative="1" as="geometry">
            <mxPoint as="offset" />
          </mxGeometry>
        </mxCell>
        <mxCell id="DIyC-fpvMkbPvDOknml4-51" value="&lt;font style=&quot;font-size: 20px;&quot;&gt;网卡&lt;/font&gt;" style="rounded=0;whiteSpace=wrap;html=1;fontFamily=Helvetica;fontSize=14;fillColor=none;align=left;verticalAlign=top;" parent="1" vertex="1">
          <mxGeometry x="1750" y="1060" width="170" height="90" as="geometry" />
        </mxCell>
        <mxCell id="DIyC-fpvMkbPvDOknml4-52" value="&lt;font style=&quot;font-size: 14px;&quot;&gt;M：内存&lt;br&gt;F：文件系统&lt;br&gt;S：调度(进程)&lt;br&gt;ARCH：硬件&lt;br&gt;&lt;/font&gt;" style="rounded=0;whiteSpace=wrap;html=1;strokeColor=#36393d;fillColor=#ffcccc;align=left;verticalAlign=top;fontStyle=1" parent="1" vertex="1">
          <mxGeometry x="540" y="-300" width="210" height="80" as="geometry" />
        </mxCell>
        <mxCell id="DIyC-fpvMkbPvDOknml4-53" value="疑问" style="shape=parallelogram;perimeter=parallelogramPerimeter;whiteSpace=wrap;html=1;fixedSize=1;strokeColor=#36393d;fontFamily=Helvetica;fontSize=14;fillColor=#ffff88;" parent="1" vertex="1">
          <mxGeometry x="20" y="150" width="120" height="60" as="geometry" />
        </mxCell>
        <mxCell id="DIyC-fpvMkbPvDOknml4-54" value="&lt;font color=&quot;#000000&quot;&gt;DMA映射区&lt;/font&gt;" style="rounded=0;whiteSpace=wrap;html=1;strokeColor=#000000;fontFamily=Helvetica;fontSize=14;fontColor=#FF3333;fillColor=none;" parent="1" vertex="1">
          <mxGeometry x="199" y="754.8888888888889" width="115.46391752577318" height="31.11111111111111" as="geometry" />
        </mxCell>
        <mxCell id="DIyC-fpvMkbPvDOknml4-55" value="&lt;font color=&quot;#000000&quot;&gt;Normal映射区&lt;/font&gt;" style="rounded=0;whiteSpace=wrap;html=1;strokeColor=#000000;fontFamily=Helvetica;fontSize=14;fontColor=#FF3333;fillColor=none;" parent="1" vertex="1">
          <mxGeometry x="199" y="723.7777777777778" width="115.46391752577318" height="31.11111111111111" as="geometry" />
        </mxCell>
        <mxCell id="DIyC-fpvMkbPvDOknml4-56" value="&lt;font color=&quot;#000000&quot;&gt;8M空洞&lt;/font&gt;" style="rounded=0;whiteSpace=wrap;html=1;strokeColor=#000000;fontFamily=Helvetica;fontSize=14;fontColor=#FF3333;fillColor=#E6E6E6;" parent="1" vertex="1">
          <mxGeometry x="199" y="692.6666666666666" width="115.46391752577318" height="31.11111111111111" as="geometry" />
        </mxCell>
        <mxCell id="DIyC-fpvMkbPvDOknml4-57" value="&lt;font color=&quot;#000000&quot;&gt;vmalloc动态映射区&lt;/font&gt;" style="rounded=0;whiteSpace=wrap;html=1;strokeColor=#000000;fontFamily=Helvetica;fontSize=14;fontColor=#FF3333;fillColor=none;" parent="1" vertex="1">
          <mxGeometry x="199" y="661.5555555555555" width="115.46391752577318" height="31.11111111111111" as="geometry" />
        </mxCell>
        <mxCell id="DIyC-fpvMkbPvDOknml4-58" value="" style="rounded=0;whiteSpace=wrap;html=1;strokeColor=#000000;fontFamily=Helvetica;fontSize=14;fontColor=#FF3333;fillColor=#E6E6E6;" parent="1" vertex="1">
          <mxGeometry x="199" y="630.4444444444445" width="115.46391752577318" height="31.11111111111111" as="geometry" />
        </mxCell>
        <mxCell id="DIyC-fpvMkbPvDOknml4-59" value="&lt;font color=&quot;#000000&quot;&gt;永久映射区&lt;/font&gt;" style="rounded=0;whiteSpace=wrap;html=1;strokeColor=#000000;fontFamily=Helvetica;fontSize=14;fontColor=#FF3333;fillColor=none;" parent="1" vertex="1">
          <mxGeometry x="199" y="599.3333333333334" width="115.46391752577318" height="31.11111111111111" as="geometry" />
        </mxCell>
        <mxCell id="DIyC-fpvMkbPvDOknml4-60" value="&lt;font color=&quot;#000000&quot; style=&quot;font-size: 10px;&quot;&gt;固定映射区&lt;/font&gt;" style="rounded=0;whiteSpace=wrap;html=1;strokeColor=#000000;fontFamily=Helvetica;fontSize=14;fontColor=#FF3333;fillColor=none;" parent="1" vertex="1">
          <mxGeometry x="199" y="568.2222222222222" width="115.46391752577318" height="31.11111111111111" as="geometry" />
        </mxCell>
        <mxCell id="DIyC-fpvMkbPvDOknml4-61" value="&lt;font color=&quot;#000000&quot;&gt;临时映射区&lt;/font&gt;" style="rounded=0;whiteSpace=wrap;html=1;strokeColor=#000000;fontFamily=Helvetica;fontSize=14;fontColor=#FF3333;fillColor=none;" parent="1" vertex="1">
          <mxGeometry x="199" y="537.1111111111111" width="115.46391752577318" height="31.11111111111111" as="geometry" />
        </mxCell>
        <mxCell id="DIyC-fpvMkbPvDOknml4-62" value="&lt;div style=&quot;text-align: center;&quot;&gt;&lt;b style=&quot;font-size: 14px; background-color: initial;&quot;&gt;进程1&lt;/b&gt;&lt;/div&gt;&lt;font style=&quot;font-size: 14px;&quot;&gt;&lt;b&gt;32位系统：虚拟地址空间分布&lt;/b&gt;&lt;br&gt;&lt;/font&gt;" style="rounded=0;whiteSpace=wrap;html=1;strokeColor=none;fillColor=none;align=left;verticalAlign=top;" parent="1" vertex="1">
          <mxGeometry x="182" y="190" width="208" height="40" as="geometry" />
        </mxCell>
        <mxCell id="DIyC-fpvMkbPvDOknml4-63" style="edgeStyle=orthogonalEdgeStyle;curved=1;rounded=0;orthogonalLoop=1;jettySize=auto;html=1;entryX=0.25;entryY=0;entryDx=0;entryDy=0;fontFamily=Helvetica;fontSize=14;fontColor=#FF8000;startArrow=none;startFill=0;endArrow=classic;endFill=1;exitX=1;exitY=0.5;exitDx=0;exitDy=0;fillColor=#f0a30a;strokeColor=#BD7000;" parent="1" source="DIyC-fpvMkbPvDOknml4-62" target="DIyC-fpvMkbPvDOknml4-2" edge="1">
          <mxGeometry relative="1" as="geometry" />
        </mxCell>
        <mxCell id="DIyC-fpvMkbPvDOknml4-64" value="&lt;font color=&quot;#000000&quot;&gt;保留区&lt;/font&gt;" style="rounded=0;whiteSpace=wrap;html=1;strokeColor=#000000;fontFamily=Helvetica;fontSize=14;fontColor=#FF3333;fillColor=#E6E6E6;" parent="1" vertex="1">
          <mxGeometry x="200" y="483.8888888888889" width="115.46391752577318" height="31.11111111111111" as="geometry" />
        </mxCell>
        <mxCell id="DIyC-fpvMkbPvDOknml4-65" value="&lt;font color=&quot;#000000&quot;&gt;代码段.text&lt;/font&gt;" style="rounded=0;whiteSpace=wrap;html=1;strokeColor=#000000;fontFamily=Helvetica;fontSize=14;fontColor=#FF3333;fillColor=none;" parent="1" vertex="1">
          <mxGeometry x="200" y="452.77777777777777" width="115.46391752577318" height="31.11111111111111" as="geometry" />
        </mxCell>
        <mxCell id="DIyC-fpvMkbPvDOknml4-66" value="&lt;font color=&quot;#000000&quot;&gt;数据段.data&lt;/font&gt;" style="rounded=0;whiteSpace=wrap;html=1;strokeColor=#000000;fontFamily=Helvetica;fontSize=14;fontColor=#FF3333;fillColor=none;" parent="1" vertex="1">
          <mxGeometry x="200" y="421.66666666666663" width="115.46391752577318" height="31.11111111111111" as="geometry" />
        </mxCell>
        <mxCell id="DIyC-fpvMkbPvDOknml4-67" value="&lt;font color=&quot;#000000&quot;&gt;BSS段.bss&lt;/font&gt;" style="rounded=0;whiteSpace=wrap;html=1;strokeColor=#000000;fontFamily=Helvetica;fontSize=14;fontColor=#FF3333;fillColor=none;" parent="1" vertex="1">
          <mxGeometry x="200" y="390.55555555555554" width="115.46391752577318" height="31.11111111111111" as="geometry" />
        </mxCell>
        <mxCell id="DIyC-fpvMkbPvDOknml4-68" value="堆malloc" style="rounded=0;whiteSpace=wrap;html=1;strokeColor=#000000;fontFamily=Helvetica;fontSize=14;fontColor=#FF3333;fillColor=none;" parent="1" vertex="1">
          <mxGeometry x="200" y="359.44444444444446" width="115.46391752577318" height="31.11111111111111" as="geometry" />
        </mxCell>
        <mxCell id="DIyC-fpvMkbPvDOknml4-69" value="&lt;font color=&quot;#000000&quot;&gt;待分配区域&lt;/font&gt;" style="rounded=0;whiteSpace=wrap;html=1;strokeColor=#000000;fontFamily=Helvetica;fontSize=14;fontColor=#FF3333;fillColor=#E6E6E6;" parent="1" vertex="1">
          <mxGeometry x="200" y="328.3333333333333" width="115.46391752577318" height="31.11111111111111" as="geometry" />
        </mxCell>
        <mxCell id="DIyC-fpvMkbPvDOknml4-70" value="&lt;font style=&quot;font-size: 10px;&quot;&gt;文件映射与匿名映射区(mmap/动态库)&lt;/font&gt;" style="rounded=0;whiteSpace=wrap;html=1;strokeColor=#000000;fontFamily=Helvetica;fontSize=14;fontColor=#FF3333;fillColor=none;" parent="1" vertex="1">
          <mxGeometry x="200" y="297.22222222222223" width="115.46391752577318" height="31.11111111111111" as="geometry" />
        </mxCell>
        <mxCell id="DIyC-fpvMkbPvDOknml4-71" value="&lt;font color=&quot;#000000&quot;&gt;待分配区域&lt;/font&gt;" style="rounded=0;whiteSpace=wrap;html=1;strokeColor=#000000;fontFamily=Helvetica;fontSize=14;fontColor=#FF3333;fillColor=#E6E6E6;" parent="1" vertex="1">
          <mxGeometry x="200" y="266.1111111111111" width="115.46391752577318" height="31.11111111111111" as="geometry" />
        </mxCell>
        <mxCell id="DIyC-fpvMkbPvDOknml4-72" value="栈" style="rounded=0;whiteSpace=wrap;html=1;strokeColor=#000000;fontFamily=Helvetica;fontSize=14;fontColor=#FF3333;fillColor=none;" parent="1" vertex="1">
          <mxGeometry x="200" y="235" width="115.46391752577318" height="31.11111111111111" as="geometry" />
        </mxCell>
        <mxCell id="DIyC-fpvMkbPvDOknml4-73" value="" style="endArrow=classic;html=1;rounded=0;fontFamily=Helvetica;fontSize=10;fontColor=#FF3333;curved=1;" parent="1" edge="1">
          <mxGeometry width="50" height="50" relative="1" as="geometry">
            <mxPoint x="330.0017525773196" y="235" as="sourcePoint" />
            <mxPoint x="330.0017525773196" y="328.3333333333335" as="targetPoint" />
          </mxGeometry>
        </mxCell>
        <mxCell id="DIyC-fpvMkbPvDOknml4-74" value="" style="endArrow=classic;html=1;rounded=0;fontFamily=Helvetica;fontSize=10;fontColor=#FF3333;curved=1;" parent="1" edge="1">
          <mxGeometry width="50" height="50" relative="1" as="geometry">
            <mxPoint x="330" y="515" as="sourcePoint" />
            <mxPoint x="330" y="360.29629629629653" as="targetPoint" />
          </mxGeometry>
        </mxCell>
        <mxCell id="DIyC-fpvMkbPvDOknml4-75" value="" style="endArrow=classic;html=1;rounded=0;fontFamily=Helvetica;fontSize=10;fontColor=#FF3333;curved=1;exitX=0.212;exitY=0.638;exitDx=0;exitDy=0;exitPerimeter=0;" parent="1" source="DIyC-fpvMkbPvDOknml4-1" edge="1">
          <mxGeometry width="50" height="50" relative="1" as="geometry">
            <mxPoint x="380" y="394.7" as="sourcePoint" />
            <mxPoint x="380" y="239.99629629629635" as="targetPoint" />
          </mxGeometry>
        </mxCell>
        <mxCell id="DIyC-fpvMkbPvDOknml4-76" value="高地址" style="edgeLabel;html=1;align=center;verticalAlign=middle;resizable=0;points=[];fontSize=10;fontFamily=Helvetica;fontColor=#000000;" parent="DIyC-fpvMkbPvDOknml4-75" vertex="1" connectable="0">
          <mxGeometry x="0.8619" y="1" relative="1" as="geometry">
            <mxPoint as="offset" />
          </mxGeometry>
        </mxCell>
        <mxCell id="DIyC-fpvMkbPvDOknml4-77" value="低地址" style="edgeLabel;html=1;align=center;verticalAlign=middle;resizable=0;points=[];fontSize=10;fontFamily=Helvetica;fontColor=#000000;" parent="DIyC-fpvMkbPvDOknml4-75" vertex="1" connectable="0">
          <mxGeometry x="-0.6177" y="-2" relative="1" as="geometry">
            <mxPoint as="offset" />
          </mxGeometry>
        </mxCell>
        <mxCell id="DIyC-fpvMkbPvDOknml4-78" value="&lt;font style=&quot;font-size: 14px;&quot;&gt;TLB快表&lt;/font&gt;&lt;br style=&quot;border-color: var(--border-color); font-size: 14px;&quot;&gt;&lt;font style=&quot;border-color: var(--border-color);&quot;&gt;(负责缓存最近常被访问的&lt;font color=&quot;#ff3333&quot;&gt;页表项&lt;/font&gt;，大大提高了地址的转换速度)&lt;/font&gt;" style="rounded=1;whiteSpace=wrap;html=1;fontFamily=Helvetica;fontSize=10;" parent="1" vertex="1">
          <mxGeometry x="402" y="1398" width="120" height="60" as="geometry" />
        </mxCell>
        <mxCell id="DIyC-fpvMkbPvDOknml4-79" value="&lt;font style=&quot;font-size: 14px;&quot;&gt;&lt;b&gt;虚拟内存地址&lt;/b&gt;：程序所使用的内存地址。&lt;br&gt;&lt;b&gt;物理内存地址&lt;/b&gt;：存在硬件里面的空间地址。&lt;br&gt;&lt;/font&gt;" style="rounded=0;whiteSpace=wrap;html=1;strokeColor=none;fillColor=none;align=left;verticalAlign=top;" parent="1" vertex="1">
          <mxGeometry x="-96" y="266.11" width="286" height="50" as="geometry" />
        </mxCell>
        <mxCell id="DIyC-fpvMkbPvDOknml4-80" style="edgeStyle=orthogonalEdgeStyle;curved=1;rounded=0;orthogonalLoop=1;jettySize=auto;html=1;entryX=1;entryY=0.5;entryDx=0;entryDy=0;fontFamily=Helvetica;fontSize=14;fontColor=#FF3333;startArrow=none;startFill=0;endArrow=classic;endFill=1;fillColor=#f0a30a;strokeColor=#BD7000;exitX=0.011;exitY=0.358;exitDx=0;exitDy=0;exitPerimeter=0;" parent="1" source="DIyC-fpvMkbPvDOknml4-91" target="DIyC-fpvMkbPvDOknml4-26" edge="1">
          <mxGeometry relative="1" as="geometry">
            <mxPoint x="1010" y="1075" as="sourcePoint" />
          </mxGeometry>
        </mxCell>
        <mxCell id="DIyC-fpvMkbPvDOknml4-81" value="2.2缺页异常" style="edgeLabel;html=1;align=center;verticalAlign=middle;resizable=0;points=[];fontSize=14;fontFamily=Helvetica;fontColor=#FF8000;" parent="DIyC-fpvMkbPvDOknml4-80" vertex="1" connectable="0">
          <mxGeometry x="-0.0298" relative="1" as="geometry">
            <mxPoint as="offset" />
          </mxGeometry>
        </mxCell>
        <mxCell id="DIyC-fpvMkbPvDOknml4-82" value="" style="group" parent="1" vertex="1" connectable="0">
          <mxGeometry x="532" y="1211" width="121" height="60" as="geometry" />
        </mxCell>
        <mxCell id="DIyC-fpvMkbPvDOknml4-83" value="虚拟地址" style="rounded=1;whiteSpace=wrap;html=1;strokeColor=#000000;fontFamily=Helvetica;fontSize=14;fontColor=#000000;fillColor=none;align=left;verticalAlign=top;" parent="DIyC-fpvMkbPvDOknml4-82" vertex="1">
          <mxGeometry width="120" height="60" as="geometry" />
        </mxCell>
        <mxCell id="DIyC-fpvMkbPvDOknml4-84" value="" style="endArrow=none;html=1;rounded=0;strokeColor=#000000;fontFamily=Helvetica;fontSize=14;fontColor=#000000;curved=1;" parent="DIyC-fpvMkbPvDOknml4-82" edge="1">
          <mxGeometry width="50" height="50" relative="1" as="geometry">
            <mxPoint y="27.5" as="sourcePoint" />
            <mxPoint x="120" y="28" as="targetPoint" />
          </mxGeometry>
        </mxCell>
        <mxCell id="DIyC-fpvMkbPvDOknml4-85" value="&lt;font style=&quot;font-size: 14px;&quot;&gt;页号&lt;br&gt;&lt;/font&gt;" style="rounded=0;whiteSpace=wrap;html=1;strokeColor=none;fillColor=none;align=left;verticalAlign=top;fontColor=#000000;" parent="DIyC-fpvMkbPvDOknml4-82" vertex="1">
          <mxGeometry x="1" y="30" width="40" height="26" as="geometry" />
        </mxCell>
        <mxCell id="DIyC-fpvMkbPvDOknml4-86" value="" style="endArrow=none;html=1;rounded=0;strokeColor=#000000;fontFamily=Helvetica;fontSize=14;fontColor=#000000;curved=1;" parent="DIyC-fpvMkbPvDOknml4-82" edge="1">
          <mxGeometry width="50" height="50" relative="1" as="geometry">
            <mxPoint x="40" y="60" as="sourcePoint" />
            <mxPoint x="40" y="30" as="targetPoint" />
          </mxGeometry>
        </mxCell>
        <mxCell id="DIyC-fpvMkbPvDOknml4-87" value="&lt;font style=&quot;font-size: 14px;&quot;&gt;页内偏移量&lt;br&gt;&lt;/font&gt;" style="rounded=0;whiteSpace=wrap;html=1;strokeColor=none;fillColor=none;align=left;verticalAlign=top;fontColor=#000000;" parent="DIyC-fpvMkbPvDOknml4-82" vertex="1">
          <mxGeometry x="41" y="30" width="80" height="26.5" as="geometry" />
        </mxCell>
        <mxCell id="DIyC-fpvMkbPvDOknml4-88" style="edgeStyle=orthogonalEdgeStyle;curved=1;rounded=0;orthogonalLoop=1;jettySize=auto;html=1;strokeColor=#BD7000;fontFamily=Helvetica;fontSize=14;fontColor=#000000;startArrow=none;startFill=0;endArrow=classic;endFill=1;fillColor=#f0a30a;exitX=0;exitY=0.25;exitDx=0;exitDy=0;" parent="1" source="DIyC-fpvMkbPvDOknml4-83" target="DIyC-fpvMkbPvDOknml4-26" edge="1">
          <mxGeometry relative="1" as="geometry">
            <Array as="points">
              <mxPoint x="532" y="1230" />
              <mxPoint x="512" y="1230" />
              <mxPoint x="512" y="1260" />
              <mxPoint x="462" y="1260" />
            </Array>
          </mxGeometry>
        </mxCell>
        <mxCell id="DIyC-fpvMkbPvDOknml4-89" value="1" style="edgeLabel;html=1;align=center;verticalAlign=middle;resizable=0;points=[];fontSize=14;fontFamily=Helvetica;fontColor=#FF8000;" parent="DIyC-fpvMkbPvDOknml4-88" vertex="1" connectable="0">
          <mxGeometry x="-0.3655" y="17" relative="1" as="geometry">
            <mxPoint x="-67" y="33" as="offset" />
          </mxGeometry>
        </mxCell>
        <mxCell id="DIyC-fpvMkbPvDOknml4-90" value="" style="group" parent="1" vertex="1" connectable="0">
          <mxGeometry x="1036" y="1048" width="180" height="60" as="geometry" />
        </mxCell>
        <mxCell id="DIyC-fpvMkbPvDOknml4-91" value="&lt;font color=&quot;#ff3333&quot;&gt;页表&lt;/font&gt;&lt;font style=&quot;font-size: 10px;&quot;&gt;（记录虚拟地址与物理地址映射关系)&lt;/font&gt;" style="rounded=1;whiteSpace=wrap;html=1;strokeColor=#000000;fontFamily=Helvetica;fontSize=14;fontColor=#000000;fillColor=none;align=left;verticalAlign=top;" parent="DIyC-fpvMkbPvDOknml4-90" vertex="1">
          <mxGeometry y="-8.571428571428571" width="180" height="68.57142857142857" as="geometry" />
        </mxCell>
        <mxCell id="DIyC-fpvMkbPvDOknml4-92" value="" style="endArrow=none;html=1;rounded=0;strokeColor=#000000;fontFamily=Helvetica;fontSize=14;fontColor=#000000;curved=1;" parent="DIyC-fpvMkbPvDOknml4-90" edge="1">
          <mxGeometry width="50" height="50" relative="1" as="geometry">
            <mxPoint y="27.499999999999993" as="sourcePoint" />
            <mxPoint x="178.51239669421494" y="27.999999999999996" as="targetPoint" />
          </mxGeometry>
        </mxCell>
        <mxCell id="DIyC-fpvMkbPvDOknml4-93" value="&lt;font style=&quot;font-size: 14px;&quot;&gt;虚拟页号&lt;br&gt;&lt;/font&gt;" style="rounded=0;whiteSpace=wrap;html=1;strokeColor=none;fillColor=none;align=left;verticalAlign=top;fontColor=#000000;" parent="DIyC-fpvMkbPvDOknml4-90" vertex="1">
          <mxGeometry x="1.487603305785124" y="30" width="59.50413223140496" height="25.999999999999996" as="geometry" />
        </mxCell>
        <mxCell id="DIyC-fpvMkbPvDOknml4-94" value="" style="endArrow=none;html=1;rounded=0;strokeColor=#000000;fontFamily=Helvetica;fontSize=14;fontColor=#000000;curved=1;" parent="DIyC-fpvMkbPvDOknml4-90" edge="1">
          <mxGeometry width="50" height="50" relative="1" as="geometry">
            <mxPoint x="59.50413223140496" y="60" as="sourcePoint" />
            <mxPoint x="59.50413223140496" y="30" as="targetPoint" />
          </mxGeometry>
        </mxCell>
        <mxCell id="DIyC-fpvMkbPvDOknml4-95" value="&lt;font style=&quot;font-size: 14px;&quot;&gt;物理页号&lt;br&gt;&lt;/font&gt;" style="rounded=0;whiteSpace=wrap;html=1;strokeColor=none;fillColor=none;align=left;verticalAlign=top;fontColor=#000000;" parent="DIyC-fpvMkbPvDOknml4-90" vertex="1">
          <mxGeometry x="60.99173553719008" y="30" width="119.00826446280992" height="26.499999999999996" as="geometry" />
        </mxCell>
        <mxCell id="DIyC-fpvMkbPvDOknml4-96" style="edgeStyle=orthogonalEdgeStyle;curved=1;rounded=0;orthogonalLoop=1;jettySize=auto;html=1;entryX=0.25;entryY=1;entryDx=0;entryDy=0;strokeColor=#A50040;fontFamily=Helvetica;fontSize=10;fontColor=#FF3333;startArrow=none;startFill=0;endArrow=classic;endFill=1;dashed=1;exitX=0.142;exitY=1;exitDx=0;exitDy=0;exitPerimeter=0;fillColor=#d80073;" parent="1" source="DIyC-fpvMkbPvDOknml4-83" target="DIyC-fpvMkbPvDOknml4-91" edge="1">
          <mxGeometry relative="1" as="geometry" />
        </mxCell>
        <mxCell id="DIyC-fpvMkbPvDOknml4-97" value="" style="group" parent="1" vertex="1" connectable="0">
          <mxGeometry x="1079" y="1253" width="75" height="90" as="geometry" />
        </mxCell>
        <mxCell id="DIyC-fpvMkbPvDOknml4-98" value="&lt;font color=&quot;#000000&quot; style=&quot;font-size: 14px;&quot;&gt;物理地址&lt;/font&gt;" style="rounded=0;whiteSpace=wrap;html=1;strokeColor=#000000;fontFamily=Helvetica;fontSize=10;fontColor=#FF3333;fillColor=none;align=center;verticalAlign=bottom;labelPosition=center;verticalLabelPosition=top;" parent="DIyC-fpvMkbPvDOknml4-97" vertex="1">
          <mxGeometry width="75" height="30" as="geometry" />
        </mxCell>
        <mxCell id="DIyC-fpvMkbPvDOknml4-99" value="&lt;font style=&quot;font-size: 14px;&quot;&gt;页f&lt;br&gt;&lt;/font&gt;" style="rounded=0;whiteSpace=wrap;html=1;strokeColor=none;fillColor=none;align=left;verticalAlign=top;" parent="DIyC-fpvMkbPvDOknml4-97" vertex="1">
          <mxGeometry x="17.5" width="40" height="30" as="geometry" />
        </mxCell>
        <mxCell id="DIyC-fpvMkbPvDOknml4-100" value="" style="rounded=0;whiteSpace=wrap;html=1;strokeColor=#000000;fontFamily=Helvetica;fontSize=10;fontColor=#FF3333;fillColor=none;align=center;verticalAlign=bottom;labelPosition=center;verticalLabelPosition=top;" parent="DIyC-fpvMkbPvDOknml4-97" vertex="1">
          <mxGeometry y="30" width="75" height="30" as="geometry" />
        </mxCell>
        <mxCell id="DIyC-fpvMkbPvDOknml4-101" value="&lt;font style=&quot;font-size: 14px;&quot;&gt;页e&lt;br&gt;&lt;/font&gt;" style="rounded=0;whiteSpace=wrap;html=1;strokeColor=none;fillColor=none;align=left;verticalAlign=top;" parent="DIyC-fpvMkbPvDOknml4-97" vertex="1">
          <mxGeometry x="18.5" y="30" width="40" height="30" as="geometry" />
        </mxCell>
        <mxCell id="DIyC-fpvMkbPvDOknml4-102" value="" style="rounded=0;whiteSpace=wrap;html=1;strokeColor=#000000;fontFamily=Helvetica;fontSize=10;fontColor=#FF3333;fillColor=none;align=center;verticalAlign=bottom;labelPosition=center;verticalLabelPosition=top;" parent="DIyC-fpvMkbPvDOknml4-97" vertex="1">
          <mxGeometry y="60" width="75" height="30" as="geometry" />
        </mxCell>
        <mxCell id="DIyC-fpvMkbPvDOknml4-103" value="&lt;font style=&quot;font-size: 14px;&quot;&gt;页d&lt;br&gt;&lt;/font&gt;" style="rounded=0;whiteSpace=wrap;html=1;strokeColor=none;fillColor=none;align=left;verticalAlign=top;" parent="DIyC-fpvMkbPvDOknml4-97" vertex="1">
          <mxGeometry x="18.5" y="60" width="40" height="30" as="geometry" />
        </mxCell>
        <mxCell id="DIyC-fpvMkbPvDOknml4-104" style="edgeStyle=orthogonalEdgeStyle;curved=1;rounded=0;orthogonalLoop=1;jettySize=auto;html=1;dashed=1;strokeColor=#A50040;fontFamily=Helvetica;fontSize=14;fontColor=#000000;startArrow=none;startFill=0;endArrow=classic;endFill=1;entryX=0;entryY=0;entryDx=0;entryDy=0;exitX=0.75;exitY=1;exitDx=0;exitDy=0;fillColor=#d80073;" parent="1" source="DIyC-fpvMkbPvDOknml4-91" target="DIyC-fpvMkbPvDOknml4-100" edge="1">
          <mxGeometry relative="1" as="geometry">
            <Array as="points">
              <mxPoint x="1186" y="1154" />
              <mxPoint x="1186" y="1243" />
              <mxPoint x="1196" y="1243" />
              <mxPoint x="1196" y="1283" />
            </Array>
          </mxGeometry>
        </mxCell>
        <mxCell id="DIyC-fpvMkbPvDOknml4-105" style="edgeStyle=orthogonalEdgeStyle;curved=1;rounded=0;orthogonalLoop=1;jettySize=auto;html=1;entryX=0;entryY=0.25;entryDx=0;entryDy=0;dashed=1;strokeColor=#A50040;fontFamily=Helvetica;fontSize=14;fontColor=#000000;startArrow=none;startFill=0;endArrow=classic;endFill=1;fillColor=#d80073;" parent="1" source="DIyC-fpvMkbPvDOknml4-87" target="DIyC-fpvMkbPvDOknml4-98" edge="1">
          <mxGeometry relative="1" as="geometry" />
        </mxCell>
        <mxCell id="DIyC-fpvMkbPvDOknml4-106" value="" style="shape=curlyBracket;whiteSpace=wrap;html=1;rounded=1;labelPosition=left;verticalLabelPosition=middle;align=right;verticalAlign=middle;strokeColor=#000000;fontFamily=Helvetica;fontSize=14;fontColor=#000000;fillColor=none;" parent="1" vertex="1">
          <mxGeometry x="1066" y="1262" width="10" height="24" as="geometry" />
        </mxCell>
        <mxCell id="DIyC-fpvMkbPvDOknml4-107" value="&lt;font style=&quot;&quot;&gt;&lt;font style=&quot;font-size: 10px;&quot;&gt;页内偏移&lt;/font&gt;&lt;br&gt;&lt;/font&gt;" style="rounded=0;whiteSpace=wrap;html=1;strokeColor=none;fillColor=none;align=left;verticalAlign=top;" parent="1" vertex="1">
          <mxGeometry x="1016" y="1261" width="60" height="24" as="geometry" />
        </mxCell>
        <mxCell id="DIyC-fpvMkbPvDOknml4-108" value="&lt;font style=&quot;font-size: 14px;&quot;&gt;&lt;br&gt;&lt;/font&gt;" style="rounded=0;whiteSpace=wrap;html=1;strokeColor=none;fillColor=none;align=left;verticalAlign=top;" parent="1" vertex="1">
          <mxGeometry x="-10" y="1270" width="128" height="58" as="geometry" />
        </mxCell>
        <mxCell id="DIyC-fpvMkbPvDOknml4-109" value="" style="group" parent="1" vertex="1" connectable="0">
          <mxGeometry x="150" y="235" width="40" height="275" as="geometry" />
        </mxCell>
        <mxCell id="DIyC-fpvMkbPvDOknml4-110" value="" style="shape=curlyBracket;whiteSpace=wrap;html=1;rounded=1;labelPosition=left;verticalLabelPosition=middle;align=right;verticalAlign=middle;strokeColor=#000000;fontFamily=Helvetica;fontSize=14;fontColor=#FF8000;fillColor=#FF3399;" parent="DIyC-fpvMkbPvDOknml4-109" vertex="1">
          <mxGeometry x="20" width="20" height="275" as="geometry" />
        </mxCell>
        <mxCell id="DIyC-fpvMkbPvDOknml4-111" value="&lt;font style=&quot;font-size: 14px;&quot;&gt;3G&lt;br&gt;&lt;/font&gt;" style="rounded=0;whiteSpace=wrap;html=1;strokeColor=none;fillColor=none;align=left;verticalAlign=top;" parent="DIyC-fpvMkbPvDOknml4-109" vertex="1">
          <mxGeometry y="122.5" width="28" height="30" as="geometry" />
        </mxCell>
        <mxCell id="DIyC-fpvMkbPvDOknml4-112" value="" style="group" parent="1" vertex="1" connectable="0">
          <mxGeometry x="150" y="542" width="40" height="250" as="geometry" />
        </mxCell>
        <mxCell id="DIyC-fpvMkbPvDOknml4-113" value="" style="shape=curlyBracket;whiteSpace=wrap;html=1;rounded=1;labelPosition=left;verticalLabelPosition=middle;align=right;verticalAlign=middle;strokeColor=#000000;fontFamily=Helvetica;fontSize=14;fontColor=#FF8000;fillColor=#FF3399;" parent="DIyC-fpvMkbPvDOknml4-112" vertex="1">
          <mxGeometry x="20" width="20" height="240" as="geometry" />
        </mxCell>
        <mxCell id="DIyC-fpvMkbPvDOknml4-114" value="&lt;font style=&quot;font-size: 14px;&quot;&gt;1G&lt;br&gt;&lt;/font&gt;" style="rounded=0;whiteSpace=wrap;html=1;strokeColor=none;fillColor=none;align=left;verticalAlign=top;" parent="DIyC-fpvMkbPvDOknml4-112" vertex="1">
          <mxGeometry y="111.36363636363636" width="28" height="27.272727272727273" as="geometry" />
        </mxCell>
        <mxCell id="DIyC-fpvMkbPvDOknml4-115" value="" style="group;fillColor=#dae8fc;strokeColor=#6c8ebf;" parent="1" vertex="1" connectable="0">
          <mxGeometry x="460" y="217" width="130" height="305.22" as="geometry" />
        </mxCell>
        <mxCell id="DIyC-fpvMkbPvDOknml4-116" value="&lt;font style=&quot;font-size: 14px;&quot;&gt;用户空间&lt;/font&gt;" style="rounded=0;whiteSpace=wrap;html=1;fontFamily=Helvetica;fontSize=14;fillColor=none;align=center;verticalAlign=middle;movable=1;resizable=1;rotatable=1;deletable=1;editable=1;connectable=1;" parent="DIyC-fpvMkbPvDOknml4-115" vertex="1">
          <mxGeometry y="23" width="130" height="282.22" as="geometry" />
        </mxCell>
        <mxCell id="DIyC-fpvMkbPvDOknml4-117" value="&lt;font style=&quot;font-size: 14px;&quot;&gt;&lt;b&gt;进程2&lt;/b&gt;&lt;br&gt;&lt;/font&gt;" style="rounded=0;whiteSpace=wrap;html=1;strokeColor=none;fillColor=none;align=left;verticalAlign=top;movable=1;resizable=1;rotatable=1;deletable=1;editable=1;connectable=1;" parent="DIyC-fpvMkbPvDOknml4-115" vertex="1">
          <mxGeometry x="41" width="42" height="23" as="geometry" />
        </mxCell>
        <mxCell id="DIyC-fpvMkbPvDOknml4-118" value="" style="group;fillColor=#dae8fc;strokeColor=#6c8ebf;" parent="1" vertex="1" connectable="0">
          <mxGeometry x="660" y="217" width="130" height="305.22" as="geometry" />
        </mxCell>
        <mxCell id="DIyC-fpvMkbPvDOknml4-119" value="&lt;font style=&quot;font-size: 14px;&quot;&gt;用户空间&lt;/font&gt;" style="rounded=0;whiteSpace=wrap;html=1;fontFamily=Helvetica;fontSize=14;fillColor=none;align=center;verticalAlign=middle;movable=1;resizable=1;rotatable=1;deletable=1;editable=1;connectable=1;" parent="DIyC-fpvMkbPvDOknml4-118" vertex="1">
          <mxGeometry y="23" width="130" height="282.22" as="geometry" />
        </mxCell>
        <mxCell id="DIyC-fpvMkbPvDOknml4-120" value="&lt;font style=&quot;font-size: 14px;&quot;&gt;&lt;b&gt;进程3&lt;/b&gt;&lt;br&gt;&lt;/font&gt;" style="rounded=0;whiteSpace=wrap;html=1;strokeColor=none;fillColor=none;align=left;verticalAlign=top;movable=1;resizable=1;rotatable=1;deletable=1;editable=1;connectable=1;" parent="DIyC-fpvMkbPvDOknml4-118" vertex="1">
          <mxGeometry x="41" width="42" height="23" as="geometry" />
        </mxCell>
        <mxCell id="DIyC-fpvMkbPvDOknml4-121" value="内核空间" style="rounded=0;whiteSpace=wrap;html=1;fillColor=#ffcc99;strokeColor=#36393d;" parent="1" vertex="1">
          <mxGeometry x="460" y="522.22" width="330" height="127.78" as="geometry" />
        </mxCell>
        <mxCell id="DIyC-fpvMkbPvDOknml4-122" value="内存充足" style="rounded=0;whiteSpace=wrap;html=1;strokeColor=#000000;fontFamily=Helvetica;fontSize=14;fontColor=#000000;fillColor=none;" parent="1" vertex="1">
          <mxGeometry x="1040" y="1390" width="180" height="30" as="geometry" />
        </mxCell>
        <mxCell id="DIyC-fpvMkbPvDOknml4-123" value="内存分配正常" style="rounded=0;whiteSpace=wrap;html=1;strokeColor=#000000;fontFamily=Helvetica;fontSize=14;fontColor=#000000;fillColor=none;" parent="1" vertex="1">
          <mxGeometry x="1040" y="1420" width="180" height="30" as="geometry" />
        </mxCell>
        <mxCell id="DIyC-fpvMkbPvDOknml4-124" value="内存压力大&lt;font style=&quot;font-size: 10px;&quot;&gt;(触发kswapd0，不阻塞程序，异步)&lt;/font&gt;" style="rounded=0;whiteSpace=wrap;html=1;strokeColor=#000000;fontFamily=Helvetica;fontSize=14;fontColor=#000000;fillColor=none;" parent="1" vertex="1">
          <mxGeometry x="1040" y="1450" width="180" height="30" as="geometry" />
        </mxCell>
        <mxCell id="DIyC-fpvMkbPvDOknml4-125" value="" style="edgeStyle=orthogonalEdgeStyle;curved=1;rounded=0;orthogonalLoop=1;jettySize=auto;html=1;dashed=1;strokeColor=#000000;fontFamily=Helvetica;fontSize=10;fontColor=#000000;startArrow=none;startFill=0;endArrow=classic;endFill=1;" parent="1" source="DIyC-fpvMkbPvDOknml4-127" target="DIyC-fpvMkbPvDOknml4-27" edge="1">
          <mxGeometry relative="1" as="geometry" />
        </mxCell>
        <mxCell id="DIyC-fpvMkbPvDOknml4-126" value="" style="edgeStyle=orthogonalEdgeStyle;curved=1;rounded=0;orthogonalLoop=1;jettySize=auto;html=1;strokeColor=#000000;fontFamily=Helvetica;fontSize=10;fontColor=#000000;startArrow=none;startFill=0;endArrow=classic;endFill=1;horizontal=0;" parent="1" source="DIyC-fpvMkbPvDOknml4-127" target="DIyC-fpvMkbPvDOknml4-137" edge="1">
          <mxGeometry relative="1" as="geometry" />
        </mxCell>
        <mxCell id="DIyC-fpvMkbPvDOknml4-127" value="内存基本耗尽&lt;font style=&quot;font-size: 10px;&quot;&gt;（触发直接内存回收，应用程序被阻塞，同步&lt;/font&gt;）" style="rounded=0;whiteSpace=wrap;html=1;strokeColor=#000000;fontFamily=Helvetica;fontSize=14;fontColor=#000000;fillColor=none;" parent="1" vertex="1">
          <mxGeometry x="1040" y="1480" width="180" height="40" as="geometry" />
        </mxCell>
        <mxCell id="DIyC-fpvMkbPvDOknml4-128" value="" style="endArrow=classic;html=1;rounded=0;dashed=1;strokeColor=#000000;fontFamily=Helvetica;fontSize=14;fontColor=#000000;curved=1;entryX=0;entryY=0;entryDx=0;entryDy=0;exitX=0;exitY=1;exitDx=0;exitDy=0;" parent="1" source="DIyC-fpvMkbPvDOknml4-127" target="DIyC-fpvMkbPvDOknml4-122" edge="1">
          <mxGeometry width="50" height="50" relative="1" as="geometry">
            <mxPoint x="1090" y="1400" as="sourcePoint" />
            <mxPoint x="1140" y="1350" as="targetPoint" />
          </mxGeometry>
        </mxCell>
        <mxCell id="DIyC-fpvMkbPvDOknml4-129" value="&lt;font style=&quot;font-size: 14px;&quot;&gt;剩余内存&lt;br&gt;&lt;/font&gt;" style="rounded=0;whiteSpace=wrap;html=1;strokeColor=none;fillColor=none;align=left;verticalAlign=top;" parent="1" vertex="1">
          <mxGeometry x="1036" y="1360" width="64.54" height="30" as="geometry" />
        </mxCell>
        <mxCell id="DIyC-fpvMkbPvDOknml4-130" value="&lt;font style=&quot;font-size: 14px;&quot;&gt;&lt;b&gt;线路位宽&lt;/b&gt;：最好1次能访问到所有的内存地址。若4G物理内存，则4G=2&lt;sup&gt;32&lt;/sup&gt;，需要32个地址总线。&lt;br&gt;&lt;/font&gt;" style="rounded=0;whiteSpace=wrap;html=1;strokeColor=none;fillColor=none;align=left;verticalAlign=top;" parent="1" vertex="1">
          <mxGeometry x="715" y="1000" width="240" height="60" as="geometry" />
        </mxCell>
        <mxCell id="DIyC-fpvMkbPvDOknml4-131" value="" style="endArrow=none;dashed=1;html=1;dashPattern=1 3;strokeWidth=2;rounded=0;strokeColor=#000000;fontFamily=Helvetica;fontSize=10;fontColor=#000000;curved=1;" parent="1" edge="1">
          <mxGeometry width="50" height="50" relative="1" as="geometry">
            <mxPoint x="1220" y="1480" as="sourcePoint" />
            <mxPoint x="1290" y="1480" as="targetPoint" />
          </mxGeometry>
        </mxCell>
        <mxCell id="DIyC-fpvMkbPvDOknml4-132" value="最小阈值/proc/sys/vm/min_free_kbytes" style="edgeLabel;html=1;align=center;verticalAlign=middle;resizable=0;points=[];fontSize=10;fontFamily=Helvetica;fontColor=#000000;" parent="DIyC-fpvMkbPvDOknml4-131" vertex="1" connectable="0">
          <mxGeometry x="0.5143" relative="1" as="geometry">
            <mxPoint x="87" as="offset" />
          </mxGeometry>
        </mxCell>
        <mxCell id="DIyC-fpvMkbPvDOknml4-133" value="" style="endArrow=none;dashed=1;html=1;dashPattern=1 3;strokeWidth=2;rounded=0;strokeColor=#000000;fontFamily=Helvetica;fontSize=10;fontColor=#000000;curved=1;" parent="1" edge="1">
          <mxGeometry width="50" height="50" relative="1" as="geometry">
            <mxPoint x="1220" y="1420" as="sourcePoint" />
            <mxPoint x="1290" y="1420" as="targetPoint" />
          </mxGeometry>
        </mxCell>
        <mxCell id="DIyC-fpvMkbPvDOknml4-134" value="页高阈值" style="edgeLabel;html=1;align=center;verticalAlign=middle;resizable=0;points=[];fontSize=10;fontFamily=Helvetica;fontColor=#000000;" parent="DIyC-fpvMkbPvDOknml4-133" vertex="1" connectable="0">
          <mxGeometry x="0.5143" relative="1" as="geometry">
            <mxPoint as="offset" />
          </mxGeometry>
        </mxCell>
        <mxCell id="DIyC-fpvMkbPvDOknml4-135" value="" style="endArrow=none;dashed=1;html=1;dashPattern=1 3;strokeWidth=2;rounded=0;strokeColor=#000000;fontFamily=Helvetica;fontSize=10;fontColor=#000000;curved=1;" parent="1" edge="1">
          <mxGeometry width="50" height="50" relative="1" as="geometry">
            <mxPoint x="1223" y="1451.5" as="sourcePoint" />
            <mxPoint x="1293" y="1451.5" as="targetPoint" />
            <Array as="points">
              <mxPoint x="1257" y="1452" />
            </Array>
          </mxGeometry>
        </mxCell>
        <mxCell id="DIyC-fpvMkbPvDOknml4-136" value="页低阈值" style="edgeLabel;html=1;align=center;verticalAlign=middle;resizable=0;points=[];fontSize=10;fontFamily=Helvetica;fontColor=#000000;" parent="DIyC-fpvMkbPvDOknml4-135" vertex="1" connectable="0">
          <mxGeometry x="0.5143" relative="1" as="geometry">
            <mxPoint as="offset" />
          </mxGeometry>
        </mxCell>
        <mxCell id="DIyC-fpvMkbPvDOknml4-137" value="&lt;font style=&quot;font-size: 10px;&quot;&gt;(空闲的物理内存仍然无法满足此次物理内存的申请)&lt;/font&gt;&lt;br&gt;&lt;font color=&quot;#ff3333&quot;&gt;触发OOM&lt;/font&gt;" style="whiteSpace=wrap;html=1;fontSize=14;fillColor=none;strokeColor=#000000;fontColor=#000000;rounded=0;" parent="1" vertex="1">
          <mxGeometry x="1055" y="1640" width="150" height="60" as="geometry" />
        </mxCell>
        <mxCell id="DIyC-fpvMkbPvDOknml4-138" style="edgeStyle=orthogonalEdgeStyle;curved=1;rounded=0;orthogonalLoop=1;jettySize=auto;html=1;entryX=0;entryY=0.5;entryDx=0;entryDy=0;strokeColor=#000000;fontFamily=Helvetica;fontSize=10;fontColor=#000000;startArrow=none;startFill=0;endArrow=classic;endFill=1;" parent="1" source="DIyC-fpvMkbPvDOknml4-141" target="DIyC-fpvMkbPvDOknml4-143" edge="1">
          <mxGeometry relative="1" as="geometry" />
        </mxCell>
        <mxCell id="DIyC-fpvMkbPvDOknml4-139" style="edgeStyle=orthogonalEdgeStyle;curved=1;rounded=0;orthogonalLoop=1;jettySize=auto;html=1;entryX=0;entryY=0.5;entryDx=0;entryDy=0;strokeColor=#000000;fontFamily=Helvetica;fontSize=10;fontColor=#000000;startArrow=none;startFill=0;endArrow=classic;endFill=1;" parent="1" source="DIyC-fpvMkbPvDOknml4-141" target="DIyC-fpvMkbPvDOknml4-145" edge="1">
          <mxGeometry relative="1" as="geometry" />
        </mxCell>
        <mxCell id="DIyC-fpvMkbPvDOknml4-140" style="edgeStyle=orthogonalEdgeStyle;curved=1;rounded=0;orthogonalLoop=1;jettySize=auto;html=1;entryX=1;entryY=0;entryDx=0;entryDy=0;strokeColor=#000000;fontFamily=Helvetica;fontSize=10;fontColor=#000000;startArrow=none;startFill=0;endArrow=none;endFill=0;dashed=1;" parent="1" source="DIyC-fpvMkbPvDOknml4-141" target="DIyC-fpvMkbPvDOknml4-127" edge="1">
          <mxGeometry relative="1" as="geometry" />
        </mxCell>
        <mxCell id="DIyC-fpvMkbPvDOknml4-141" value="&lt;font style=&quot;&quot;&gt;内存回收类型&lt;br&gt;&lt;span style=&quot;font-size: 14px;&quot;&gt;/proc/sys/vm/swappiness&lt;/span&gt;&lt;br&gt;&lt;/font&gt;" style="rounded=0;whiteSpace=wrap;html=1;strokeColor=none;fillColor=none;align=left;verticalAlign=top;" parent="1" vertex="1">
          <mxGeometry x="1320" y="1652" width="120" height="60" as="geometry" />
        </mxCell>
        <mxCell id="DIyC-fpvMkbPvDOknml4-142" style="edgeStyle=orthogonalEdgeStyle;curved=1;rounded=0;orthogonalLoop=1;jettySize=auto;html=1;dashed=1;strokeColor=#000000;fontFamily=Helvetica;fontSize=10;fontColor=#FF8000;startArrow=none;startFill=0;endArrow=none;endFill=0;" parent="1" source="DIyC-fpvMkbPvDOknml4-143" target="DIyC-fpvMkbPvDOknml4-146" edge="1">
          <mxGeometry relative="1" as="geometry" />
        </mxCell>
        <mxCell id="DIyC-fpvMkbPvDOknml4-143" value="&lt;font style=&quot;font-size: 14px;&quot;&gt;&lt;font style=&quot;border-color: var(--border-color); background-color: initial;&quot;&gt;文件页&lt;/font&gt;：&lt;/font&gt;&lt;font style=&quot;&quot;&gt;&lt;font style=&quot;font-size: 10px;&quot;&gt;内核缓存的磁盘数据（Buffer）和内核缓存的文件数据（Cache）都叫作文件页。&lt;font color=&quot;#ff8000&quot;&gt;回收干净页的方式是直接释放内存，回收脏页的方式是先写回磁盘后再释放内存。&lt;/font&gt;&lt;/font&gt;&lt;br&gt;&lt;/font&gt;" style="rounded=0;whiteSpace=wrap;html=1;strokeColor=none;fillColor=none;align=left;verticalAlign=top;" parent="1" vertex="1">
          <mxGeometry x="1490" y="1592" width="360" height="60" as="geometry" />
        </mxCell>
        <mxCell id="DIyC-fpvMkbPvDOknml4-144" style="edgeStyle=orthogonalEdgeStyle;curved=1;rounded=0;orthogonalLoop=1;jettySize=auto;html=1;dashed=1;strokeColor=#000000;fontFamily=Helvetica;fontSize=10;fontColor=#FF8000;startArrow=none;startFill=0;endArrow=none;endFill=0;" parent="1" source="DIyC-fpvMkbPvDOknml4-145" target="DIyC-fpvMkbPvDOknml4-146" edge="1">
          <mxGeometry relative="1" as="geometry" />
        </mxCell>
        <mxCell id="DIyC-fpvMkbPvDOknml4-145" value="&lt;font style=&quot;font-size: 14px;&quot;&gt;&lt;font style=&quot;border-color: var(--border-color); background-color: initial;&quot;&gt;匿名页&lt;/font&gt;：&lt;/font&gt;&lt;font style=&quot;&quot;&gt;&lt;font style=&quot;font-size: 10px;&quot;&gt;这部分内存没有实际载体，不像文件缓存有硬盘文件这样一个载体，比如堆、栈数据等。&lt;/font&gt;回收的方式是通过 Linux 的 Swap 机制，&lt;font color=&quot;#ff8000&quot;&gt;Swap 会把不常访问的内存先写到磁盘中，然后释放这些内存，给其他更需要的进程使用。再次访问这些内存时，重新从磁盘读入内存就可以了。&lt;/font&gt;&lt;br&gt;&lt;/font&gt;" style="rounded=0;whiteSpace=wrap;html=1;strokeColor=none;fillColor=none;align=left;verticalAlign=top;" parent="1" vertex="1">
          <mxGeometry x="1480" y="1695" width="420" height="80" as="geometry" />
        </mxCell>
        <mxCell id="DIyC-fpvMkbPvDOknml4-146" value="&lt;font style=&quot;font-size: 14px;&quot;&gt;回收内存的操作基本都会发生&lt;font color=&quot;#ff8000&quot;&gt;磁盘I/O(降低系统性能)&lt;/font&gt;，如果频繁回收内存，导致系统很卡。&lt;br&gt;&lt;/font&gt;" style="rounded=0;whiteSpace=wrap;html=1;strokeColor=none;fillColor=none;align=left;verticalAlign=top;" parent="1" vertex="1">
          <mxGeometry x="1930" y="1639" width="210" height="56" as="geometry" />
        </mxCell>
        <mxCell id="DIyC-fpvMkbPvDOknml4-147" value="&lt;font style=&quot;font-size: 14px;&quot;&gt;&lt;b&gt;C.中断&lt;/b&gt;：【2.6】&lt;br&gt;1. 上半部：处理硬件请求(网卡)，硬中断。如：网卡收到网络包后，通过 DMA 方式将接收到的数据写入内存，接着会通过&lt;font color=&quot;#ff3333&quot;&gt;硬件中断&lt;/font&gt;通知内核有新的数据到了，接着会先禁止网卡中断，避免频繁硬中断，而降低内核的工作效率。&lt;br&gt;2. 下半部：由内核触发，软中断。内核就会调用对应的&lt;font color=&quot;#ff3333&quot;&gt;中断处理程&lt;/font&gt;序来处理该事件。如：从内存中找到网络数据，再按照网络协议栈，对网络数据进行逐层解析和处理，最后把数据送给应用程序。&lt;br&gt;&lt;/font&gt;" style="rounded=0;whiteSpace=wrap;html=1;strokeColor=#b85450;fillColor=#f8cecc;align=left;verticalAlign=top;gradientColor=#ea6b66;" parent="1" vertex="1">
          <mxGeometry x="1950" y="1031" width="470" height="170" as="geometry" />
        </mxCell>
        <mxCell id="OgJQ_JI7s8FEFrFPbTXJ-1" value="&lt;font style=&quot;font-size: 14px;&quot;&gt;&lt;b&gt;A.程序执行&lt;/b&gt;：【2.1】&lt;br&gt;1.CPU 读取「程序计数器」的值(下一条指令的内存地址[虚拟地址]);&lt;br&gt;2.1. 访问的虚拟地址在MMU中的TLB快表查到，则转换为物理地址，否则，继续2.2；&lt;br&gt;2.2. 访问的虚拟地址在MMU中的TLB快表查不到，&lt;font color=&quot;#ff3333&quot;&gt;产生缺页异常&lt;/font&gt;，进入系统内核空间分配物理内存、更新进程页表，最后再返回用户空间，恢复进程的运行，按照2.1操作；&lt;br&gt;3. 虚拟地址经过MMU转换为物理地址；CPU 的「控制单元」操作&lt;font color=&quot;#7ea6e0&quot;&gt;「地址总线」&lt;/font&gt;指定需要访问的内存地址，接着通知内存设备准备数据，数据准备好后通过「&lt;font color=&quot;#7ea6e0&quot;&gt;数据总线&lt;/font&gt;」将指令数据传给 CPU；&lt;br&gt;4.CPU 收到&lt;font color=&quot;#7ea6e0&quot;&gt;内存传来的数据&lt;/font&gt;后，将这个指令数据存入到「指令寄存器」；&lt;br&gt;5.&quot;程序计数器&quot;自增，指向下一条指令；&lt;font color=&quot;#7ea6e0&quot;&gt;CPU 分析「指令寄存器」&lt;/font&gt;中的指令，确定指令的类型和参数，如果是计算类型的指令，就把指令交给「逻辑运算单元」运算；如果是存储类型的指令，则交由「控制单元」执行；&lt;br&gt;&lt;/font&gt;" style="rounded=0;whiteSpace=wrap;html=1;strokeColor=#BD7000;fillColor=#f0a30a;align=left;verticalAlign=top;fontColor=#000000;" vertex="1" parent="1">
          <mxGeometry x="439" y="1687" width="555" height="230" as="geometry" />
        </mxCell>
        <mxCell id="OgJQ_JI7s8FEFrFPbTXJ-2" value="&lt;font style=&quot;font-size: 14px;&quot;&gt;【CPU读写数据以 CPU Cache Line 大小为为单位，CPU Cache Line 是 CPU 从内存读取数据到 Cache 的单位】【2.4】&lt;b&gt;&lt;br&gt;B1.cpu访问内存的数据(读）&lt;/b&gt;：&lt;br&gt;1.寄存器有，则获取，否则往后；&lt;br&gt;2.L1,L2,L3有，则获取，否则从往后;&lt;br&gt;3.内存有，则数据缓存到cache，最后CPU从cache读取&lt;br&gt;&lt;br&gt;&lt;b style=&quot;border-color: var(--border-color);&quot;&gt;B2.cpu写入数据(写）&lt;/b&gt;：&lt;br style=&quot;border-color: var(--border-color);&quot;&gt;a类：写直达。无论数据在不在 Cache 里面，每次写操作都会写回到&lt;font style=&quot;border-color: var(--border-color);&quot; color=&quot;#ff3333&quot;&gt;内存&lt;/font&gt;。&lt;br style=&quot;border-color: var(--border-color);&quot;&gt;b类：写回。只有在&lt;font style=&quot;border-color: var(--border-color);&quot; color=&quot;#ff3333&quot;&gt;缓存不命中，同时数据对应的 Cache 中的 Cache Block 为脏标记的情况下&lt;/font&gt;，才会将数据写到内存中；在&lt;font style=&quot;border-color: var(--border-color);&quot; color=&quot;#ff3333&quot;&gt;缓存命中(数据在cache中)&lt;/font&gt;的情况下，则在写入后 Cache 后，只需把该数据对应的 Cache Block 标记为脏即可，而不用写到内存里。&lt;br style=&quot;border-color: var(--border-color);&quot;&gt;&lt;/font&gt;" style="rounded=0;whiteSpace=wrap;html=1;strokeColor=#82b366;fillColor=#d5e8d4;align=left;verticalAlign=top;gradientColor=#97d077;" vertex="1" parent="1">
          <mxGeometry x="439" y="1977" width="520" height="230" as="geometry" />
        </mxCell>
        <mxCell id="OgJQ_JI7s8FEFrFPbTXJ-3" value="&lt;font style=&quot;font-size: 14px;&quot;&gt;&lt;b&gt;拷问：&lt;br&gt;&lt;ul&gt;&lt;li&gt;&lt;font style=&quot;&quot;&gt;&lt;b&gt;第2章_硬件结构&lt;/b&gt;&lt;/font&gt;&lt;/li&gt;&lt;/ul&gt;&lt;/b&gt;&lt;div style=&quot;&quot;&gt;&lt;span style=&quot;font-size: 14px;&quot;&gt;1. 有了内存，为什么还需要 CPU Cache？&lt;/span&gt;&lt;/div&gt;&lt;div style=&quot;&quot;&gt;&lt;span style=&quot;font-size: 14px;&quot;&gt;2. CPU 是怎么读写数据的？&lt;/span&gt;&lt;/div&gt;&lt;div style=&quot;&quot;&gt;&lt;span style=&quot;font-size: 14px;&quot;&gt;3. 如何让 CPU 能读取数据更快一些？&lt;/span&gt;&lt;/div&gt;&lt;div style=&quot;&quot;&gt;&lt;span style=&quot;font-size: 14px;&quot;&gt;4. CPU 伪共享是如何发生的？又该如何避免？&lt;/span&gt;&lt;/div&gt;&lt;div style=&quot;&quot;&gt;&lt;span style=&quot;font-size: 14px;&quot;&gt;5. CPU 是如何调度任务的？如果你的任务对响应要求很高，你希望它总是能被先调度，这该怎么办？&lt;/span&gt;&lt;/div&gt;&lt;div style=&quot;&quot;&gt;&lt;ul&gt;&lt;li&gt;&lt;span style=&quot;font-size: 14px;&quot;&gt;&lt;b&gt;第4章_内存管理&lt;/b&gt;&lt;/span&gt;&lt;/li&gt;&lt;/ul&gt;&lt;/div&gt;&lt;div style=&quot;&quot;&gt;&lt;span style=&quot;font-size: 14px;&quot;&gt;1. 为什么要有虚拟内存？&lt;/span&gt;&lt;/div&gt;&lt;div style=&quot;&quot;&gt;&lt;div&gt;2.1. malloc 是如何分配内存的？为什么不仅用brk或仅用mmap系统调用分配内存？&lt;/div&gt;&lt;div&gt;2.2. malloc 分配的是物理内存吗？&lt;/div&gt;&lt;div&gt;2.3. malloc(1) 会分配多大的内存？&lt;/div&gt;&lt;div&gt;2.4. free 释放内存，会归还给操作系统吗？&lt;/div&gt;&lt;div&gt;2.5. free() 函数只传入一个内存地址，为什么能知道要释放多大的内存？&lt;/div&gt;&lt;/div&gt;&lt;div style=&quot;&quot;&gt;&lt;span style=&quot;font-size: 14px;&quot;&gt;3. 内存满了，会发生什么？&lt;/span&gt;&lt;/div&gt;&lt;/font&gt;&lt;span style=&quot;font-size: 14px;&quot;&gt;4.&amp;nbsp;&lt;/span&gt;在 4GB 物理内存的机器上，申请 8G 内存会怎么样？" style="rounded=0;whiteSpace=wrap;html=1;strokeColor=#36393d;fillColor=#cce5ff;align=left;verticalAlign=top;" vertex="1" parent="1">
          <mxGeometry x="11" y="2487" width="610" height="490" as="geometry" />
        </mxCell>
        <mxCell id="OgJQ_JI7s8FEFrFPbTXJ-4" value="&lt;font style=&quot;font-size: 14px;&quot;&gt;&lt;font style=&quot;font-size: 14px;&quot;&gt;&lt;b style=&quot;&quot;&gt;解答：&lt;br&gt;&lt;ul style=&quot;&quot;&gt;&lt;li&gt;&lt;font style=&quot;font-size: 14px;&quot;&gt;&lt;b&gt;第2章_硬件结构&lt;/b&gt;&lt;/font&gt;&amp;nbsp;&lt;/li&gt;&lt;/ul&gt;&lt;/b&gt;&lt;/font&gt;1. Cache 作为 CPU 与内存之间的缓存层，以减少对内存的访问频率。&lt;br&gt;2. 见上文字&lt;br&gt;3.&amp;nbsp;如果我们操作的数据是数组，那么访问数组元素的时候，&lt;font style=&quot;font-size: 14px;&quot; color=&quot;#ff3333&quot;&gt;按内存分布的地址顺序进行访问&lt;/font&gt;，这样能充分利用到 Cache，程序的性能得到提升。但如果操作的数据不是数组，而是普通的变量，并在多核 CPU 的情况下，我们还需要避免 Cache Line 伪共享的问题。&lt;br&gt;4.&amp;nbsp;多个线程同时读写同一个 Cache Line 的不同变量时，而导致 CPU Cache 失效的现象称为&lt;font style=&quot;font-size: 14px;&quot; color=&quot;#ff3333&quot;&gt;伪共享&lt;/font&gt;。&lt;br&gt;&lt;/font&gt;&lt;ul style=&quot;border-color: var(--border-color); font-size: 14px;&quot;&gt;&lt;li style=&quot;border-color: var(--border-color);&quot;&gt;&lt;b style=&quot;border-color: var(--border-color);&quot;&gt;&lt;font style=&quot;font-size: 14px;&quot;&gt;第4章_内存管理&lt;/font&gt;&lt;/b&gt;&lt;/li&gt;&lt;/ul&gt;&lt;p style=&quot;font-size: 14px;&quot;&gt;&lt;/p&gt;&lt;div style=&quot;font-size: 14px;&quot;&gt;&lt;font style=&quot;font-size: 14px;&quot;&gt;&lt;b&gt;1.&lt;/b&gt;&amp;nbsp;第一，&lt;font style=&quot;font-size: 14px;&quot; color=&quot;#ff3333&quot;&gt;虚拟内存可以使得进程对运行内存超过物理内存大小&lt;/font&gt;。&lt;/font&gt;&lt;/div&gt;&lt;font style=&quot;font-size: 14px;&quot;&gt;&lt;span style=&quot;background-color: initial;&quot;&gt;因为程序运行符合局部性原理，CPU 访问内存会有很明显的重复访问的倾向性，对于那些没有被经常使用到的内存，我们可以把它换出到物理内存之外，比如硬盘上的 swap 区域。&lt;/span&gt;&lt;br&gt;&lt;span style=&quot;background-color: initial;&quot;&gt;第二，&lt;/span&gt;&lt;font style=&quot;background-color: initial; font-size: 14px;&quot; color=&quot;#ff3333&quot;&gt;解决了多进程之间地址冲突的问题&lt;/font&gt;&lt;span style=&quot;background-color: initial;&quot;&gt;。&lt;/span&gt;&lt;br&gt;&lt;span style=&quot;background-color: initial;&quot;&gt;&lt;font style=&quot;font-size: 14px;&quot; color=&quot;#ff3333&quot;&gt;由于每个进程都有自己的页表&lt;/font&gt;，所以每个进程的虚拟内存空间就是相互独立的。进程也没有办法访问其他进程的页表，所以这些页表是私有的，这就解决了多进程之间地址冲突的问题。&lt;/span&gt;&lt;br&gt;&lt;span style=&quot;background-color: initial;&quot;&gt;第三，&lt;/span&gt;&lt;font style=&quot;background-color: initial; font-size: 14px;&quot; color=&quot;#ff3333&quot;&gt;在内存访问方面，操作系统提供了更好的安全性&lt;/font&gt;&lt;span style=&quot;background-color: initial;&quot;&gt;。&lt;/span&gt;&lt;br&gt;&lt;/font&gt;&lt;div style=&quot;font-size: 14px;&quot;&gt;&lt;font style=&quot;font-size: 14px;&quot;&gt;页表里的页表项中除了物理地址之外，还有一些标记属性的比特，比如控制一个页的读写权限，标记该页是否存在等。&lt;/font&gt;&lt;/div&gt;&lt;div style=&quot;font-size: 14px;&quot;&gt;&lt;font style=&quot;font-size: 14px;&quot;&gt;&lt;b&gt;2.1&amp;amp;&amp;amp;2.4&lt;/b&gt;.&amp;nbsp;&amp;nbsp;malloc() 并不是系统调用，而是 C 库里的函数，用于动态分配内存；&lt;/font&gt;&lt;/div&gt;&lt;div style=&quot;font-size: 14px;&quot;&gt;&lt;span style=&quot;background-color: initial;&quot;&gt;&amp;nbsp; &amp;nbsp; &amp;nbsp; 方式一：用户分配的内存&amp;lt; 128 KB，通过 brk() 系统调用从堆分配内存【maps有heap表示】；free 释放内存后，堆内&lt;/span&gt;&lt;span style=&quot;background-color: initial;&quot;&gt;存还是存在的，并没有归还给操作系统。&amp;nbsp;&lt;/span&gt;&lt;/div&gt;&lt;div style=&quot;&quot;&gt;&lt;font style=&quot;&quot;&gt;&lt;div style=&quot;font-size: 14px;&quot;&gt;&amp;nbsp; &amp;nbsp; &amp;nbsp; 方式二：用户分配的内&amp;gt;=128 KB，通过 mmap() 系统调用在文件映射区域分配内存【匿名映射，maps无标识】；free 释放内存后就会归归还给操作系统。&lt;/div&gt;&lt;div style=&quot;&quot;&gt;&amp;nbsp; &amp;nbsp; &amp;nbsp; &amp;nbsp;&amp;nbsp;&lt;span style=&quot;background-color: initial; font-size: 14px;&quot;&gt;仅用方式1，随着系统频繁地 malloc 和 free ，尤其对于小块内存，堆内将产生越来越多不可用的碎片，导致“内存泄露”。而这种“泄露”现象使用 valgrind 是无法检测出来的。&lt;/span&gt;&lt;/div&gt;&lt;/font&gt;&lt;div style=&quot;&quot;&gt;&lt;span style=&quot;font-size: 14px;&quot;&gt;&amp;nbsp; &amp;nbsp; &amp;nbsp; &amp;nbsp;仅用方式2，mmap 分配的内存每次释放的时候，都会归还给操作系统；频繁通过 mmap 分配的内存话，不仅每次都会发生运行态的切换，还会发生缺页中断（在第一次访问虚拟地址后），这样会导致 CPU 消耗较大。&lt;/span&gt;&lt;/div&gt;&lt;div style=&quot;&quot;&gt;&lt;span style=&quot;font-size: 14px; background-color: initial;&quot;&gt;&lt;b&gt;2.2&lt;/b&gt;. malloc() 分配的是虚拟内存。&lt;/span&gt;&lt;font style=&quot;font-size: 14px; background-color: initial;&quot; color=&quot;#ff8000&quot;&gt;如果分配后的虚拟内存没有被访问的话，虚拟内存是不会映射到物理内存的，这样就不会占用物理内存了。&lt;/font&gt;&lt;br&gt;&lt;/div&gt;&lt;/div&gt;&lt;div style=&quot;font-size: 14px;&quot;&gt;&lt;font style=&quot;font-size: 14px;&quot;&gt;&lt;b&gt;2.3&lt;/b&gt;.&amp;nbsp;malloc() 在分配内存的时候，并不是老老实实按用户预期申请的字节数来分配内存空间大小，而是会预分配更大的空间作为内存池。&lt;/font&gt;&lt;/div&gt;&lt;div style=&quot;font-size: 14px;&quot;&gt;&lt;font style=&quot;font-size: 14px;&quot;&gt;&lt;b&gt;2.5&lt;/b&gt;.&amp;nbsp;&amp;nbsp;执行 free() 函数时，free 会对传入进来的内存地址向左偏移 16 字节，然后从这个 16 字节的分析出当前的内存块的大小，自然就知道要释放多大的内存。&lt;/font&gt;&lt;/div&gt;&lt;div style=&quot;font-size: 14px;&quot;&gt;&lt;font style=&quot;font-size: 14px;&quot;&gt;&lt;div style=&quot;border-color: var(--border-color);&quot;&gt;&lt;b style=&quot;border-color: var(--border-color);&quot;&gt;3&lt;/b&gt;. 见上图。“内存压力大”。&lt;/div&gt;&lt;div style=&quot;border-color: var(--border-color);&quot;&gt;&lt;b style=&quot;border-color: var(--border-color);&quot;&gt;4&lt;/b&gt;.&amp;nbsp;&lt;/div&gt;&lt;/font&gt;&lt;/div&gt;&lt;p&gt;&lt;/p&gt;" style="rounded=0;whiteSpace=wrap;html=1;strokeColor=#36393d;fillColor=#cce5ff;align=left;verticalAlign=top;" vertex="1" parent="1">
          <mxGeometry x="639" y="2487" width="770" height="670" as="geometry" />
        </mxCell>
        <mxCell id="OgJQ_JI7s8FEFrFPbTXJ-5" value="&lt;font style=&quot;font-size: 14px;&quot;&gt;【CPU读写数据以 CPU Cache Line 大小为为单位，CPU Cache Line 是 CPU 从内存读取数据到 Cache 的单位】【2.4】&lt;b&gt;&lt;br&gt;B1.cpu访问内存的数据(读）&lt;/b&gt;：&lt;br&gt;1.寄存器有，则获取，否则往后；&lt;br&gt;2.L1,L2,L3有，则获取，否则从往后;&lt;br&gt;3.内存有，则数据缓存到cache，最后CPU从cache读取&lt;br&gt;&lt;br&gt;&lt;b style=&quot;border-color: var(--border-color);&quot;&gt;B2.cpu写入数据(写）&lt;/b&gt;：&lt;br style=&quot;border-color: var(--border-color);&quot;&gt;a类：写直达。无论数据在不在 Cache 里面，每次写操作都会写回到&lt;font style=&quot;border-color: var(--border-color);&quot; color=&quot;#ff3333&quot;&gt;内存&lt;/font&gt;。&lt;br style=&quot;border-color: var(--border-color);&quot;&gt;b类：写回。只有在&lt;font style=&quot;border-color: var(--border-color);&quot; color=&quot;#ff3333&quot;&gt;缓存不命中，同时数据对应的 Cache 中的 Cache Block 为脏标记的情况下&lt;/font&gt;，才会将数据写到内存中；在&lt;font style=&quot;border-color: var(--border-color);&quot; color=&quot;#ff3333&quot;&gt;缓存命中(数据在cache中)&lt;/font&gt;的情况下，则在写入后 Cache 后，只需把该数据对应的 Cache Block 标记为脏即可，而不用写到内存里。&lt;br style=&quot;border-color: var(--border-color);&quot;&gt;&lt;/font&gt;" style="rounded=0;whiteSpace=wrap;html=1;strokeColor=#82b366;fillColor=#d5e8d4;align=left;verticalAlign=top;gradientColor=#97d077;" vertex="1" parent="1">
          <mxGeometry x="439" y="2227" width="520" height="230" as="geometry" />
        </mxCell>
      </root>
    </mxGraphModel>
  </diagram>
</mxfile>
